<svg width="20" height="20" viewBox="0 0 20 20" fill="none" xmlns="http://www.w3.org/2000/svg">
<g id="01) Icons/Line/arrow-circle-down">
<path id="&#240;&#159;&#142;&#168; Icon &#208;&#161;olor" fill-rule="evenodd" clip-rule="evenodd" d="M5.08551 13.2279L7.56634 13.0021L12.233 8.33125L9.98634 6.08375L5.30551 10.7646L5.08551 13.2279ZM11.103 4.96791L13.3488 7.21375L14.9713 5.58875L12.7263 3.34375L11.103 4.96791ZM3.57719 14.7379C3.40219 14.5629 3.31469 14.3196 3.33636 14.0729L3.65219 10.5979C3.68719 10.2171 3.85553 9.85791 4.12719 9.58625L11.6239 2.08958C12.2089 1.50208 13.2697 1.53125 13.8872 2.14708L16.1689 4.42875L16.1697 4.42958C16.8072 5.06791 16.833 6.08291 16.2264 6.69125L8.72886 14.1887C8.45803 14.4596 8.09886 14.6279 7.71719 14.6629L4.24219 14.9787C4.21719 14.9804 4.19219 14.9812 4.16636 14.9812C3.94719 14.9812 3.73469 14.8946 3.57719 14.7379ZM16.6663 17.4812C16.6663 17.9396 16.2913 18.3146 15.833 18.3146H4.16634C3.70884 18.3146 3.33301 17.9396 3.33301 17.4812C3.33301 17.0237 3.70884 16.6479 4.16634 16.6479H15.833C16.2913 16.6479 16.6663 17.0237 16.6663 17.4812Z" fill="#C5CEE0"/>
</g>
</svg>
