<svg width="17" height="17" viewBox="0 0 17 17" fill="none" xmlns="http://www.w3.org/2000/svg">
<g id="edit 1" clip-path="url(#clip0_16_4982)">
<path id="Vector" d="M11.9972 0.752602L2.74463 10.0052L0.760742 16.2391L6.99463 14.2552L16.2472 5.0026C16.2472 5.0026 16.1764 3.51439 14.8306 2.16927C13.4847 0.823435 11.9972 0.752602 11.9972 0.752602ZM12.2629 1.90364C13.0222 2.04814 13.6267 2.3698 14.0932 2.84855C14.5596 3.32729 14.8879 3.96312 15.0962 4.73698L13.8123 6.02083L10.979 3.1875L11.9972 2.16927L12.2629 1.90364ZM3.52629 10.7149C3.53466 10.717 4.37801 10.9303 5.2238 11.776C6.14463 12.626 6.2863 13.4058 6.2863 13.4058L6.31673 13.4417L3.80298 14.2511L2.74325 13.1913L3.52629 10.7149Z" fill="#4A85F6"/>
</g>
<defs>
<clipPath id="clip0_16_4982">
<rect width="17" height="17" fill="white"/>
</clipPath>
</defs>
</svg>
