<svg width="24" height="24" viewBox="0 0 24 24" fill="none" xmlns="http://www.w3.org/2000/svg">
<g id="product-management-svgrepo-com 1">
<g id="Page-1">
<g id="icon">
<path id="Combined-Shape" fill-rule="evenodd" clip-rule="evenodd" d="M21.9804 18.8126C21.9911 18.8635 21.9975 18.915 21.9994 18.967L22 19.0001V20.0001C22 21.1047 19.9853 22.0001 17.5 22.0001C15.0396 22.0001 13.0403 21.1225 13.0006 20.0332L13 20.0001V19.0001L13.0006 18.967C13.0025 18.9152 13.0088 18.8638 13.0195 18.8129C13.2951 19.02 13.6306 19.2111 14.0194 19.3746C14.9268 19.7564 16.1504 20.0001 17.5 20.0001C18.9031 20.0001 20.1698 19.7363 21.0881 19.3281C21.4314 19.1756 21.7301 19.0009 21.9804 18.8126ZM11 1.61011L20 6.61011L20.0001 10.3002C19.2629 10.1109 18.4101 10.0001 17.5 10.0001C16.1294 10.0001 14.8889 10.2521 13.9737 10.6588C12.7206 11.2158 12.0826 12.0675 12.002 12.9295L11.9997 12.9556L12.0054 21.0515L11 21.6101L2 16.6101V6.61011L11 1.61011ZM21.9804 15.8126C21.9911 15.8635 21.9975 15.915 21.9994 15.967L22 16.0001V17.0001C22 18.1047 19.9853 19.0001 17.5 19.0001C15.0396 19.0001 13.0403 18.1225 13.0006 17.0332L13 17.0001V16.0001L13.0006 15.967C13.0025 15.9152 13.0088 15.8638 13.0195 15.8129C13.2951 16.02 13.6306 16.2111 14.0194 16.3746C14.9268 16.7564 16.1504 17.0001 17.5 17.0001C18.9031 17.0001 20.1698 16.7363 21.0881 16.3281C21.4314 16.1756 21.7301 16.0009 21.9804 15.8126ZM7.99995 10.9433L8 17.7213L10 18.8325V12.0544L7.99995 10.9433ZM4 8.72114V15.499L5.99998 16.6102V9.83222L4 8.72114ZM17.5 11.0001C19.9604 11.0001 21.9597 11.8777 21.9994 12.967L22 13.0001V14.0001C22 15.1047 19.9853 16.0001 17.5 16.0001C15.0396 16.0001 13.0403 15.1225 13.0006 14.0332L13 14.0001V13.0001L13.0067 12.8904C13.1348 11.8368 15.0976 11.0001 17.5 11.0001ZM14.9371 6.01959L9.05056 9.30487L11 10.3879L16.9 7.11011L14.9371 6.01959ZM11 3.83233L5.1 7.11011L7.05289 8.19506L12.9394 4.90978L11 3.83233Z" fill="black"/>
</g>
</g>
</g>
</svg>
