<svg width="20" height="20" viewBox="0 0 20 20" fill="none" xmlns="http://www.w3.org/2000/svg">
<g id="01) Icons/Line/arrow-circle-down Copy">
<path id="&#240;&#159;&#142;&#168; Icon &#208;&#161;olor" fill-rule="evenodd" clip-rule="evenodd" d="M17.4976 9.14508H17.5001C17.9593 9.14508 18.3326 9.51675 18.3335 9.97591C18.3401 12.2017 17.4793 14.2976 15.9093 15.8759C14.3401 17.4542 12.2501 18.3267 10.0243 18.3334H10.0001C7.78262 18.3334 5.69679 17.4734 4.12429 15.9092C2.54595 14.3401 1.67345 12.2501 1.66679 10.0242C1.66012 7.79758 2.52095 5.70258 4.09095 4.12425C5.66012 2.54591 7.75012 1.67341 9.97595 1.66675C10.6385 1.67675 11.3135 1.74341 11.9601 1.89841C12.4068 2.00675 12.6826 2.45675 12.5743 2.90425C12.4668 3.35091 12.0143 3.62591 11.5693 3.51925C11.0518 3.39425 10.5026 3.34175 9.98095 3.33341C8.20012 3.33841 6.52762 4.03675 5.27262 5.29925C4.01679 6.56175 3.32845 8.23841 3.33345 10.0192C3.33845 11.8001 4.03679 13.4717 5.29929 14.7276C6.55762 15.9784 8.22595 16.6667 10.0001 16.6667H10.0193C11.8001 16.6617 13.4726 15.9634 14.7276 14.7009C15.9835 13.4376 16.6718 11.7617 16.6668 9.98092C16.666 9.52091 17.0376 9.14591 17.4976 9.14508ZM6.91095 9.41083C7.23679 9.085 7.76345 9.085 8.08929 9.41083L9.95929 11.2808L15.2068 5.28416C15.5101 4.94 16.036 4.90333 16.3826 5.20667C16.7285 5.50917 16.7635 6.03583 16.4601 6.3825L10.6268 13.0492C10.4751 13.2225 10.2585 13.325 10.0276 13.3333H10.0001C9.77929 13.3333 9.56762 13.2458 9.41095 13.0892L6.91095 10.5892C6.58512 10.2633 6.58512 9.73666 6.91095 9.41083Z" fill="#C5CEE0"/>
<mask id="mask0_16_4558" style="mask-type:alpha" maskUnits="userSpaceOnUse" x="1" y="1" width="18" height="18">
<path id="&#240;&#159;&#142;&#168; Icon &#208;&#161;olor_2" fill-rule="evenodd" clip-rule="evenodd" d="M17.4976 9.14508H17.5001C17.9593 9.14508 18.3326 9.51675 18.3335 9.97591C18.3401 12.2017 17.4793 14.2976 15.9093 15.8759C14.3401 17.4542 12.2501 18.3267 10.0243 18.3334H10.0001C7.78262 18.3334 5.69679 17.4734 4.12429 15.9092C2.54595 14.3401 1.67345 12.2501 1.66679 10.0242C1.66012 7.79758 2.52095 5.70258 4.09095 4.12425C5.66012 2.54591 7.75012 1.67341 9.97595 1.66675C10.6385 1.67675 11.3135 1.74341 11.9601 1.89841C12.4068 2.00675 12.6826 2.45675 12.5743 2.90425C12.4668 3.35091 12.0143 3.62591 11.5693 3.51925C11.0518 3.39425 10.5026 3.34175 9.98095 3.33341C8.20012 3.33841 6.52762 4.03675 5.27262 5.29925C4.01679 6.56175 3.32845 8.23841 3.33345 10.0192C3.33845 11.8001 4.03679 13.4717 5.29929 14.7276C6.55762 15.9784 8.22595 16.6667 10.0001 16.6667H10.0193C11.8001 16.6617 13.4726 15.9634 14.7276 14.7009C15.9835 13.4376 16.6718 11.7617 16.6668 9.98092C16.666 9.52091 17.0376 9.14591 17.4976 9.14508ZM6.91095 9.41083C7.23679 9.085 7.76345 9.085 8.08929 9.41083L9.95929 11.2808L15.2068 5.28416C15.5101 4.94 16.036 4.90333 16.3826 5.20667C16.7285 5.50917 16.7635 6.03583 16.4601 6.3825L10.6268 13.0492C10.4751 13.2225 10.2585 13.325 10.0276 13.3333H10.0001C9.77929 13.3333 9.56762 13.2458 9.41095 13.0892L6.91095 10.5892C6.58512 10.2633 6.58512 9.73666 6.91095 9.41083Z" fill="white"/>
</mask>
<g mask="url(#mask0_16_4558)">
</g>
</g>
</svg>
