<svg width="20" height="20" viewBox="0 0 20 20" fill="none" xmlns="http://www.w3.org/2000/svg">
<g id="01) Icons/Line/arrow-circle-down Copy">
<path id="&#240;&#159;&#142;&#168; Icon &#208;&#161;olor" fill-rule="evenodd" clip-rule="evenodd" d="M8.33335 13.3333C8.33335 13.7917 7.95835 14.1667 7.50002 14.1667C7.04169 14.1667 6.66669 13.7917 6.66669 13.3333V10C6.66669 9.54166 7.04169 9.16666 7.50002 9.16666C7.95835 9.16666 8.33335 9.54166 8.33335 10V13.3333ZM13.3334 13.3333C13.3334 13.7917 12.9584 14.1667 12.5 14.1667C12.0417 14.1667 11.6667 13.7917 11.6667 13.3333V10C11.6667 9.54166 12.0417 9.16666 12.5 9.16666C12.9584 9.16666 13.3334 9.54166 13.3334 10V13.3333ZM15 15.8333C15 16.2925 14.6267 16.6667 14.1667 16.6667H5.83335C5.37335 16.6667 5.00002 16.2925 5.00002 15.8333V6.66666H15V15.8333ZM8.33335 3.60666C8.33335 3.4775 8.51169 3.33333 8.75002 3.33333H11.25C11.4884 3.33333 11.6667 3.4775 11.6667 3.60666V5H8.33335V3.60666ZM17.5 5H16.6667H13.3334V3.60666C13.3334 2.53666 12.3992 1.66666 11.25 1.66666H8.75002C7.60085 1.66666 6.66669 2.53666 6.66669 3.60666V5H3.33335H2.50002C2.04169 5 1.66669 5.375 1.66669 5.83333C1.66669 6.29166 2.04169 6.66666 2.50002 6.66666H3.33335V15.8333C3.33335 17.2117 4.45502 18.3333 5.83335 18.3333H14.1667C15.545 18.3333 16.6667 17.2117 16.6667 15.8333V6.66666H17.5C17.9584 6.66666 18.3334 6.29166 18.3334 5.83333C18.3334 5.375 17.9584 5 17.5 5Z" fill="#C5CEE0"/>
<mask id="mask0_16_223" style="mask-type:alpha" maskUnits="userSpaceOnUse" x="1" y="1" width="18" height="18">
<path id="&#240;&#159;&#142;&#168; Icon &#208;&#161;olor_2" fill-rule="evenodd" clip-rule="evenodd" d="M8.33335 13.3333C8.33335 13.7917 7.95835 14.1667 7.50002 14.1667C7.04169 14.1667 6.66669 13.7917 6.66669 13.3333V10C6.66669 9.54166 7.04169 9.16666 7.50002 9.16666C7.95835 9.16666 8.33335 9.54166 8.33335 10V13.3333ZM13.3334 13.3333C13.3334 13.7917 12.9584 14.1667 12.5 14.1667C12.0417 14.1667 11.6667 13.7917 11.6667 13.3333V10C11.6667 9.54166 12.0417 9.16666 12.5 9.16666C12.9584 9.16666 13.3334 9.54166 13.3334 10V13.3333ZM15 15.8333C15 16.2925 14.6267 16.6667 14.1667 16.6667H5.83335C5.37335 16.6667 5.00002 16.2925 5.00002 15.8333V6.66666H15V15.8333ZM8.33335 3.60666C8.33335 3.4775 8.51169 3.33333 8.75002 3.33333H11.25C11.4884 3.33333 11.6667 3.4775 11.6667 3.60666V5H8.33335V3.60666ZM17.5 5H16.6667H13.3334V3.60666C13.3334 2.53666 12.3992 1.66666 11.25 1.66666H8.75002C7.60085 1.66666 6.66669 2.53666 6.66669 3.60666V5H3.33335H2.50002C2.04169 5 1.66669 5.375 1.66669 5.83333C1.66669 6.29166 2.04169 6.66666 2.50002 6.66666H3.33335V15.8333C3.33335 17.2117 4.45502 18.3333 5.83335 18.3333H14.1667C15.545 18.3333 16.6667 17.2117 16.6667 15.8333V6.66666H17.5C17.9584 6.66666 18.3334 6.29166 18.3334 5.83333C18.3334 5.375 17.9584 5 17.5 5Z" fill="white"/>
</mask>
<g mask="url(#mask0_16_223)">
</g>
</g>
</svg>
